#N canvas 258 208 450 300 10;
#X obj 99 6 loadbang;
#X obj 100 97 float;
#X obj 164 136 print m;
#X obj 163 98 + 1;
#X msg 57 8 bang;
#X msg 181 23 stop;
#X obj 205 50 r metro;
#X obj 100 76 metro 1000;
#X connect 0 0 7 0;
#X connect 1 0 3 0;
#X connect 3 0 2 0;
#X connect 3 0 1 1;
#X connect 4 0 7 0;
#X connect 5 0 7 0;
#X connect 6 0 7 0;
#X connect 7 0 1 0;
