#N canvas 639 463 812 529 10;
#X obj 158 343 s_drumelectro;
#X text 357 9 Router for iJam's first instrument \, drumelectro \,
which is based on Rjdj's s_drumelectro sample.;
#X obj 85 24 r i-drumelectro;
#X obj 197 62 print drumelectro;
#X obj 477 275 float 0.5;
#X msg 478 298 \$1 300;
#X obj 476 248 t b f;
#X obj 478 319 line~;
#X obj 545 91 loadbang;
#X obj 85 205 r \$0-play;
#X obj 452 216 r \$0-volume;
#X floatatom 544 300 5 0 0 0 - - -;
#X obj 545 117 symbol \$0-volume;
#X msg 545 141 \; \$1 0.5;
#X obj 233 442 ij-dac;
#X obj 232 408 *~;
#X obj 233 442 ij-dac;
#X obj 232 408 *~;
#X obj 233 442 ij-dac;
#X obj 232 408 *~;
#X obj 84 123 s \$0-play;
#X obj 262 126 s \$0-volume;
#X obj 84 102 routeOSC /play /settings /volume;
#X obj 161 126 s \$0-settings;
#X msg 142 234 bd;
#X msg 162 255 sn;
#X msg 177 279 hh;
#X msg 193 300 oh;
#X obj 253 207 r \$0-settings;
#X msg 256 237 hhtune 2;
#X msg 202 321 cp;
#X connect 0 0 15 0;
#X connect 2 0 3 0;
#X connect 2 0 22 0;
#X connect 4 0 5 0;
#X connect 4 0 11 0;
#X connect 5 0 7 0;
#X connect 6 0 4 0;
#X connect 6 1 4 1;
#X connect 7 0 15 1;
#X connect 8 0 12 0;
#X connect 9 0 0 0;
#X connect 10 0 6 0;
#X connect 12 0 13 0;
#X connect 15 0 14 0;
#X connect 15 0 14 1;
#X connect 17 0 16 0;
#X connect 17 0 16 1;
#X connect 19 0 18 0;
#X connect 19 0 18 1;
#X connect 22 0 20 0;
#X connect 22 1 23 0;
#X connect 22 2 21 0;
#X connect 24 0 0 0;
#X connect 25 0 0 0;
#X connect 26 0 0 0;
#X connect 27 0 0 0;
#X connect 28 0 0 0;
#X connect 29 0 0 0;
#X connect 30 0 0 0;
