#N canvas 702 38 541 355 10;
#X obj 35 50 inlet~;
#X obj 35 71 hip~ 3;
#X obj 35 92 clip~ -1 1;
#X obj 150 51 inlet~;
#X obj 150 72 hip~ 3;
#X obj 150 93 clip~ -1 1;
#X obj 49 308 *~;
#X obj 49 329 dac~;
#X obj 113 304 *~;
#X obj 181 273 line~;
#X obj 362 120 r #volume;
#X obj 362 141 route set;
#X obj 326 211 float 0.5;
#X msg 326 232 \$1 300;
#X obj 391 17 loadbang;
#X floatatom 369 178 5 0 0 0 - - -;
#X obj 389 91 print ij-dac;
#X msg 391 38 loaded \; pd dsp 1 \; #volume set 1;
#X connect 0 0 1 0;
#X connect 1 0 2 0;
#X connect 2 0 6 0;
#X connect 3 0 4 0;
#X connect 4 0 5 0;
#X connect 5 0 8 0;
#X connect 6 0 7 0;
#X connect 8 0 7 1;
#X connect 9 0 6 1;
#X connect 9 0 8 1;
#X connect 10 0 11 0;
#X connect 11 0 12 0;
#X connect 11 0 15 0;
#X connect 12 0 13 0;
#X connect 13 0 9 0;
#X connect 14 0 17 0;
#X connect 17 0 16 0;
