#N canvas 515 68 650 399 10;
#X obj 52 30 udpreceive 1734;
#X obj 52 51 unpackOSC;
#X obj 52 72 pipelist;
#X floatatom 133 71 5 0 0 0 - - -;
#X text 175 70 millisecond_delay;
#X obj 131 152 routeOSC /inst;
#X obj 268 185 print route-err;
#X obj 130 198 routeOSC /calvin;
#X obj 46 263 routeOSC /rhodeybass /drumelectro;
#X obj 269 220 print user-route-err;
#X obj 162 299 s i-drumelectro;
#X obj 42 301 s i-rhodeybass;
#X connect 0 0 1 0;
#X connect 1 0 2 0;
#X connect 1 1 2 1;
#X connect 1 1 3 0;
#X connect 2 0 5 0;
#X connect 5 0 7 0;
#X connect 5 1 6 0;
#X connect 7 0 8 0;
#X connect 7 1 9 0;
#X connect 8 0 11 0;
#X connect 8 1 10 0;
