#N canvas 506 137 675 435 10;
#X obj 66 77 noise~;
#X obj 123 77 line~;
#X obj 66 131 *~;
#N canvas 0 22 450 300 (subpatch) 0;
#X array noise 5000 float 0;
#X coords 0 1 4999 -1 200 80 1;
#X restore 381 102 graph;
#N canvas 0 22 450 300 (subpatch) 0;
#X array line 5000 float 0;
#X coords 0 1 4999 -1 200 80 1;
#X restore 381 19 graph;
#N canvas 0 22 450 300 (subpatch) 0;
#X array noise_and_line 5000 float 0;
#X coords 0 1 4999 -1 200 80 1;
#X restore 381 186 graph;
#X msg 123 49 1 \, 0 50;
#X obj 247 11 bng 15 250 50 0 empty doit empty 0 -6 0 8 -241291 -1
-1;
#X obj 241 -32 receive doit;
#X obj 404 306 loadbang;
#X msg 394 342 \; pd dsp 1;
#X obj 61 212 dac~;
#X connect 0 0 2 0;
#X connect 1 0 2 1;
#X connect 2 0 11 0;
#X connect 6 0 1 0;
#X connect 7 0 6 0;
#X connect 8 0 7 0;
#X connect 9 0 10 0;
