#N canvas 710 286 450 300 10;
#X obj 104 33 r doit2;
#X obj 105 121 line~;
#X obj 104 179 *~;
#X obj 103 270 dac~;
#X obj 14 111 osc~ 1000;
#X msg 140 81 1 1000;
#X msg 211 85 0 100;
#X obj 104 221 clip~ -1 1;
#X obj 182 255 print~;
#X msg 288 42 \; doit2 1 1000;
#X obj 217 205 metro 500;
#X msg 228 137 stop;
#X connect 0 0 1 0;
#X connect 0 0 10 0;
#X connect 1 0 2 1;
#X connect 2 0 7 0;
#X connect 4 0 2 0;
#X connect 5 0 1 0;
#X connect 6 0 1 0;
#X connect 7 0 8 0;
#X connect 7 0 3 1;
#X connect 7 0 3 0;
#X connect 10 0 8 0;
#X connect 11 0 10 0;
